<?xml version="1.0" encoding="UTF-8"?>
<svg width="128" height="128" viewBox="0 0 128 128" xmlns="http://www.w3.org/2000/svg">
  <!-- Background circle -->
  <circle cx="64" cy="64" r="58" fill="#2563eb" stroke="#1e40af" stroke-width="4"/>
  
  <!-- Document icon -->
  <rect x="35" y="25" width="45" height="60" rx="3" fill="white" stroke="#e5e7eb" stroke-width="1"/>
  <rect x="35" y="25" width="35" height="50" rx="3" fill="#f9fafb"/>
  
  <!-- Document lines -->
  <line x1="40" y1="35" x2="70" y2="35" stroke="#6b7280" stroke-width="1.5"/>
  <line x1="40" y1="42" x2="75" y2="42" stroke="#6b7280" stroke-width="1.5"/>
  <line x1="40" y1="49" x2="65" y2="49" stroke="#6b7280" stroke-width="1.5"/>
  <line x1="40" y1="56" x2="72" y2="56" stroke="#6b7280" stroke-width="1.5"/>
  <line x1="40" y1="63" x2="68" y2="63" stroke="#6b7280" stroke-width="1.5"/>
  
  <!-- AI/Brain icon -->
  <circle cx="85" cy="75" r="18" fill="#10b981" stroke="#059669" stroke-width="2"/>
  
  <!-- Neural network nodes -->
  <circle cx="80" cy="70" r="2" fill="white"/>
  <circle cx="90" cy="70" r="2" fill="white"/>
  <circle cx="85" cy="80" r="2" fill="white"/>
  <circle cx="75" cy="80" r="1.5" fill="white"/>
  <circle cx="95" cy="80" r="1.5" fill="white"/>
  
  <!-- Neural connections -->
  <line x1="80" y1="70" x2="85" y2="80" stroke="white" stroke-width="1"/>
  <line x1="90" y1="70" x2="85" y2="80" stroke="white" stroke-width="1"/>
  <line x1="85" y1="80" x2="75" y2="80" stroke="white" stroke-width="1"/>
  <line x1="85" y1="80" x2="95" y2="80" stroke="white" stroke-width="1"/>
  
  <!-- Construction element (hammer/gavel) -->
  <rect x="45" y="90" width="20" height="4" rx="2" fill="#f59e0b" transform="rotate(15 55 92)"/>
  <rect x="52" y="85" width="6" height="15" rx="1" fill="#92400e"/>
  
  <!-- Magnifying glass -->
  <circle cx="105" cy="45" r="12" fill="none" stroke="#dc2626" stroke-width="3"/>
  <line x1="114" y1="54" x2="120" y2="60" stroke="#dc2626" stroke-width="3"/>
  
  <!-- Small text "AI" -->
  <text x="82" y="78" font-family="Arial, sans-serif" font-size="8" font-weight="bold" fill="white" text-anchor="middle">AI</text>
</svg>